<?xml version="1.0" standalone="no"?>
<!DOCTYPE svg PUBLIC "-//W3C//DTD SVG 20010904//EN"
 "http://www.w3.org/TR/2001/REC-SVG-20010904/DTD/svg10.dtd">
<svg version="1.0" xmlns="http://www.w3.org/2000/svg"
 width="500.000000pt" height="500.000000pt" viewBox="0 0 500.000000 500.000000"
 preserveAspectRatio="xMidYMid meet">
<metadata>
Created by potrace 1.14, written by Peter Selinger 2001-2017
</metadata>
<g transform="translate(0.000000,500.000000) scale(0.100000,-0.100000)"
fill="#000000" stroke="none">
<path d="M0 2500 l0 -2500 2500 0 2500 0 0 2500 0 2500 -2500 0 -2500 0 0
-2500z m1508 1974 c281 -64 503 -275 594 -564 20 -65 23 -95 23 -230 0 -178
-16 -248 -87 -380 -292 -545 -1060 -582 -1402 -66 -205 309 -169 729 86 1002
203 217 494 305 786 238z m2398 -10 c150 -43 265 -114 372 -228 270 -289 293
-731 54 -1047 -198 -261 -534 -378 -853 -296 -560 144 -793 798 -454 1272 124
173 326 294 545 326 89 13 242 1 336 -27z m-2368 -2363 c227 -66 402 -212 511
-428 59 -117 76 -201 75 -363 0 -135 -2 -152 -31 -238 -90 -270 -305 -471
-578 -542 -110 -29 -279 -29 -390 0 -364 94 -615 412 -616 780 -1 210 60 380
193 538 118 139 260 222 458 267 92 21 282 13 378 -14z"/>
</g>
</svg>
